<?xml version="1.0" encoding="iso-8859-1"?>
<!-- Uploaded to: SVG Repo, www.svgrepo.com, Generator: SVG Repo Mixer Tools -->
<svg version="1.1" id="Layer_1" xmlns="http://www.w3.org/2000/svg" xmlns:xlink="http://www.w3.org/1999/xlink" 
	 viewBox="0 0 512 512" xml:space="preserve">
<path style="fill:#FA690E;" d="M502.865,188.049C473.095,79.648,373.856,0,256,0C114.615,0,0,114.615,0,256
	c0,117.856,79.648,217.094,188.049,246.865L502.865,188.049z"/>
<path style="fill:#934D2B;" d="M512,256c0-23.529-3.191-46.309-9.135-67.951l-89.458-89.458L98.592,413.408l89.458,89.458
	c21.641,5.944,44.422,9.135,67.951,9.135C397.385,512,512,397.384,512,256z"/>
<path style="fill:#FFF3AD;" d="M256,33.391L144.696,256L256,478.609c122.943,0,222.609-99.665,222.609-222.609
	S378.943,33.391,256,33.391z"/>
<path style="fill:#FFFFFF;" d="M33.391,256c0,122.943,99.665,222.609,222.609,222.609V33.391
	C133.057,33.391,33.391,133.057,33.391,256z"/>
<path style="fill:#FFD23E;" d="M256,66.783L161.391,256L256,445.217c104.501,0,189.217-84.715,189.217-189.217
	S360.501,66.783,256,66.783z"/>
<path style="fill:#FFE376;" d="M66.783,256c0,104.503,84.716,189.217,189.217,189.217V66.783
	C151.499,66.783,66.783,151.497,66.783,256z"/>
<path style="fill:#FC870B;" d="M256,111.304L183.652,256L256,400.696c79.913,0,144.696-64.782,144.696-144.696
	S335.913,111.304,256,111.304z"/>
<path style="fill:#FDA409;" d="M111.304,256c0,79.913,64.782,144.696,144.696,144.696V111.304
	C176.087,111.304,111.304,176.087,111.304,256z"/>
<path style="fill:#FFF3AD;" d="M304.484,381.151c9.561,9.561,9.561,25.066,0,34.638c-9.572,9.561-25.077,9.561-34.638,0L256,401.942
	l-22.261-101.421l55.652,22.261v43.275L304.484,381.151z"/>
<path style="fill:#FFFFFF;" d="M256,300.522v101.421l-13.846,13.846c-9.561,9.561-25.066,9.561-34.638,0
	c-9.561-9.572-9.561-25.077,0-34.638l15.093-15.093v-43.275L256,300.522z"/>
<polygon style="fill:#FFC207;" points="233.739,221.785 256,322.783 289.391,322.783 339.834,244.046 "/>
<polygon style="fill:#FFD23E;" points="172.522,244.046 172.266,244.213 222.609,322.783 256,322.783 256,221.785 "/>
<path style="fill:#F94C10;" d="M356.174,189.217c0,20.246-6.01,39.079-16.339,54.829c-12.644,0-19.534,3.45-25.066,6.211
	c-4.753,2.382-8.504,4.252-16.762,4.252s-12.01-1.87-16.762-4.252c-5.532-2.76-12.41-6.2-25.066-6.211c-0.056,0-0.122,0-0.178,0
	l-44.522-77.501L256,89.043C311.329,89.043,356.174,133.888,356.174,189.217z"/>
<g>
	<rect x="300.522" y="166.957" style="fill:#F72E12;" width="22.261" height="22.261"/>
	<rect x="278.261" y="122.435" style="fill:#F72E12;" width="22.261" height="22.261"/>
</g>
<path style="fill:#FA690E;" d="M172.522,244.046l-0.256,0.167l-0.1-0.167c-10.329-15.75-16.339-34.582-16.339-54.829
	c0-55.329,44.845-100.174,100.174-100.174v155.002c-12.544,0.033-19.378,3.462-24.888,6.211c-4.753,2.382-8.504,4.252-16.762,4.252
	c-8.27,0-12.01-1.87-16.762-4.252C192.056,247.496,185.166,244.057,172.522,244.046z"/>
<path style="fill:#F94C10;" d="M408.487,219.27L390.122,256l18.365,36.73c20.285,0,36.73-16.445,36.73-36.73
	S428.772,219.27,408.487,219.27z"/>
<path style="fill:#FA690E;" d="M371.757,256c0,20.285,16.445,36.73,36.73,36.73V219.27C388.202,219.27,371.757,235.715,371.757,256z
	"/>
<circle style="fill:#F72E12;" cx="408.487" cy="256" r="11.13"/>
<path style="fill:#44702A;" d="M347.27,326.122l-8.348-16.696l8.348-16.696c9.22,0,16.696,7.475,16.696,16.696
	C363.965,318.647,356.49,326.122,347.27,326.122z"/>
<path style="fill:#63842C;" d="M330.574,309.426c0-9.22,7.475-16.696,16.696-16.696v33.391
	C338.049,326.122,330.574,318.647,330.574,309.426z"/>
<path style="fill:#44702A;" d="M372.87,205.913l-8.348-16.696l8.348-16.696c9.22,0,16.696,7.475,16.696,16.696
	C389.565,198.438,382.09,205.913,372.87,205.913z"/>
<path style="fill:#63842C;" d="M356.174,189.217c0-9.22,7.475-16.696,16.696-16.696v33.391
	C363.649,205.913,356.174,198.438,356.174,189.217z"/>
<path style="fill:#FA690E;" d="M103.513,292.73L85.148,256l18.365-36.73c20.285,0,36.73,16.445,36.73,36.73
	S123.798,292.73,103.513,292.73z"/>
<path style="fill:#FC870B;" d="M66.783,256c0-20.285,16.445-36.73,36.73-36.73v73.461C83.228,292.73,66.783,276.285,66.783,256z"/>
<circle style="fill:#F94C10;" cx="103.513" cy="256" r="11.13"/>
<path style="fill:#63842C;" d="M164.73,292.73l-8.348,16.696l8.348,16.696c9.22,0,16.696-7.475,16.696-16.696
	C181.426,300.206,173.951,292.73,164.73,292.73z"/>
<path style="fill:#81982D;" d="M148.035,309.426c0,9.22,7.475,16.696,16.696,16.696V292.73
	C155.51,292.73,148.035,300.206,148.035,309.426z"/>
<path style="fill:#63842C;" d="M129.411,326.122l-8.348,16.696l8.348,16.696c9.22,0,16.696-7.475,16.696-16.696
	C146.107,333.597,138.632,326.122,129.411,326.122z"/>
<path style="fill:#81982D;" d="M112.716,342.817c0,9.22,7.475,16.696,16.696,16.696v-33.391
	C120.191,326.122,112.716,333.597,112.716,342.817z"/>
</svg>